<svg viewBox="0 0 11 11" fill="none" xmlns="http://www.w3.org/2000/svg">
<path d="M9.92058 1.07989L1.07794 4.51571L3.70069 5.60522C4.46733 5.92322 5.07641 6.53249 5.39416 7.29923L6.48367 9.92144L9.92058 1.07989ZM10.9237 1.4503L7.48683 10.2929C7.26958 10.8524 6.64444 11.1386 6.09045 10.9338C5.95546 10.884 5.83223 10.8068 5.72848 10.707C5.62474 10.6073 5.54272 10.4872 5.48758 10.3543L4.39753 7.73102C4.18547 7.22011 3.77937 6.81421 3.26837 6.6024L0.646152 5.51289C0.100853 5.2864 -0.147898 4.65692 0.0905339 4.10619C0.14911 3.97157 0.233731 3.84987 0.339526 3.74808C0.445322 3.64629 0.570203 3.56643 0.706982 3.5131L9.54962 0.0761953C9.74172 -0.00100655 9.95227 -0.0200603 10.1551 0.0214018C10.3579 0.0628639 10.5441 0.163014 10.6905 0.309407C10.8369 0.4558 10.9371 0.641983 10.9785 0.84482C11.02 1.04766 11.0009 1.25821 10.9237 1.4503Z" fill="white"/>
</svg>
