<svg viewBox="0 0 11 11" fill="none" xmlns="http://www.w3.org/2000/svg">
<path d="M10.1159 0H0.884125C0.396 0 0 0.396 0 0.884125V10.1159C0 10.604 0.396 11 0.884125 11H10.1159C10.604 11 11 10.604 11 10.1159V0.884125C11 0.396 10.604 0 10.1159 0V0ZM10.1159 10.12C3.95863 10.1186 0.88 10.1173 0.88 10.1159C0.881375 3.95863 0.88275 0.88 0.884125 0.88C7.04137 0.881375 10.12 0.88275 10.12 0.884125C10.1186 7.04137 10.1173 10.12 10.1159 10.12ZM1.63075 4.12362H3.26287V9.37338H1.63075V4.12362ZM2.4475 3.40588C2.96863 3.40588 3.3935 2.98237 3.3935 2.45987C3.3935 2.33564 3.36903 2.21263 3.32149 2.09786C3.27395 1.98308 3.20427 1.8788 3.11642 1.79095C3.02858 1.70311 2.92429 1.63343 2.80952 1.58588C2.69474 1.53834 2.57173 1.51388 2.4475 1.51388C2.32327 1.51388 2.20026 1.53834 2.08548 1.58588C1.97071 1.63343 1.86642 1.70311 1.77858 1.79095C1.69073 1.8788 1.62105 1.98308 1.57351 2.09786C1.52597 2.21263 1.5015 2.33564 1.5015 2.45987C1.50012 2.98237 1.92363 3.40588 2.4475 3.40588ZM5.91662 6.776C5.91662 6.09125 6.04725 5.4285 6.89562 5.4285C7.73162 5.4285 7.744 6.21087 7.744 6.82V9.37338H9.37475V6.49412C9.37475 5.08062 9.0695 3.993 7.41812 3.993C6.62475 3.993 6.09263 4.42888 5.874 4.84138H5.852V4.12362H4.28588V9.37338H5.91662V6.776Z" fill="white"/>
</svg>
