<svg viewBox="0 0 13 11" xmlns="http://www.w3.org/2000/svg">
<path d="M10.5187 0H1.85625C1.36394 0 0.891797 0.217299 0.543683 0.604092C0.195569 0.990886 0 1.51549 0 2.0625V8.9375C0 9.48451 0.195569 10.0091 0.543683 10.3959C0.891797 10.7827 1.36394 11 1.85625 11H10.5187C11.0111 11 11.4832 10.7827 11.8313 10.3959C12.1794 10.0091 12.375 9.48451 12.375 8.9375V2.0625C12.375 1.51549 12.1794 0.990886 11.8313 0.604092C11.4832 0.217299 11.0111 0 10.5187 0V0ZM10.1042 1.375L6.1875 4.64062L2.27081 1.375H10.1042ZM10.5187 9.625H1.85625C1.69215 9.625 1.53477 9.55257 1.41873 9.42364C1.30269 9.29471 1.2375 9.11984 1.2375 8.9375V2.23438L5.81625 6.05C5.92335 6.13925 6.05362 6.1875 6.1875 6.1875C6.32138 6.1875 6.45165 6.13925 6.55875 6.05L11.1375 2.23438V8.9375C11.1375 9.11984 11.0723 9.29471 10.9563 9.42364C10.8402 9.55257 10.6829 9.625 10.5187 9.625Z" fill="white"/>
</svg>
