<svg viewBox="0 0 11 11" xmlns="http://www.w3.org/2000/svg">
<path d="M10.8472 9.14688L9.29628 10.6853C9.06736 10.9201 8.76391 10.9996 8.46839 11C7.16148 10.9608 5.92617 10.3189 4.91189 9.6597C3.24702 8.4485 1.71943 6.94668 0.760689 5.13179C0.392977 4.37075 -0.0384801 3.39971 0.00274249 2.55025C0.00641832 2.2307 0.0925301 1.91708 0.317581 1.7111L1.86845 0.161011C2.1905 -0.112916 2.50194 -0.0182063 2.70802 0.300867L3.95571 2.6668C4.08703 2.94709 4.0117 3.24741 3.81577 3.44769L3.24439 4.01878C3.20912 4.06709 3.18666 4.12209 3.18609 4.18195C3.40519 5.03007 4.06896 5.81178 4.65533 6.34974C5.2417 6.88771 5.87198 7.61655 6.69012 7.7891C6.79125 7.8173 6.91512 7.82721 6.98747 7.75996L7.65215 7.08398C7.88128 6.91032 8.2121 6.82543 8.45672 6.96744H8.46838L10.7189 8.29608C11.0493 8.50317 11.0837 8.90339 10.8472 9.14688V9.14688Z" fill="white"/>
</svg>
