<svg width="231" height="357" viewBox="0 0 231 357" fill="none" xmlns="http://www.w3.org/2000/svg">
<g clip-path="url(#clip0)">
<circle cx="49.2864" cy="24.2624" r="11.3425" fill="white"/>
<circle cx="91.9714" cy="24.2624" r="11.3425" fill="white"/>
<circle cx="134.656" cy="24.2624" r="11.3425" fill="white"/>
<circle cx="177.341" cy="24.2624" r="11.3425" fill="white"/>
<circle cx="220.026" cy="24.2624" r="11.3425" fill="#FBB03C"/>
<circle cx="49.2864" cy="85.9475" r="11.3425" fill="white"/>
<circle cx="91.9714" cy="85.9475" r="11.3425" fill="white"/>
<circle cx="134.656" cy="85.9475" r="11.3425" fill="white"/>
<circle cx="177.341" cy="85.9475" r="11.3425" fill="white"/>
<circle cx="220.026" cy="85.9475" r="11.3425" fill="white"/>
<circle cx="49.2864" cy="147.632" r="11.3425" fill="white"/>
<circle cx="91.9714" cy="147.632" r="11.3425" fill="white"/>
<circle cx="134.656" cy="147.632" r="11.3425" fill="white"/>
<circle cx="177.341" cy="147.632" r="11.3425" fill="white"/>
<circle cx="220.026" cy="147.632" r="11.3425" fill="#FBB03C"/>
<circle cx="49.2864" cy="209.317" r="11.3425" fill="white"/>
<circle cx="91.9714" cy="209.317" r="11.3425" fill="white"/>
<circle cx="134.656" cy="209.317" r="11.3425" fill="white"/>
<circle cx="177.341" cy="209.317" r="11.3425" fill="#FBB03C"/>
<circle cx="220.026" cy="209.317" r="11.3425" fill="#FBB03C"/>
<circle cx="49.2864" cy="271.002" r="11.3425" fill="white"/>
<circle cx="91.9714" cy="271.002" r="11.3425" fill="white"/>
<circle cx="134.656" cy="271.002" r="11.3425" fill="white"/>
<circle cx="177.341" cy="271.002" r="11.3425" fill="white"/>
<circle cx="220.026" cy="271.002" r="11.3425" fill="#FBB03C"/>
<circle cx="49.2864" cy="332.687" r="11.3425" fill="white"/>
<circle cx="91.9714" cy="332.687" r="11.3425" fill="white"/>
<circle cx="134.656" cy="332.687" r="11.3425" fill="#FBB03C"/>
<circle cx="177.341" cy="332.687" r="11.3425" fill="#FBB03C"/>
<circle cx="220.026" cy="332.687" r="11.3425" fill="#FBB03C"/>
</g>
<defs>
<clipPath id="clip0">
<rect width="230" height="355.11" fill="white" transform="translate(0.943909 0.919922)"/>
</clipPath>
</defs>
</svg>
